# xmcd
#
# Track frame offsets: 
#        150
#        14847
#        28920
#        42083
#        60467
#        79564
#        94231
#        123557
#        134810
#        151443
#        169876
#        184200
#        202104
#        218085
#        228504
#
# Disc length: 3230 seconds
#
# Revision: 0
# Processed by: cddbd v1.5.2PL0 Copyright (c) Steve Scherf et al.
# Submitted via: ExactAudioCopyFreeDBPlugin 1.0
#
DISCID=dc0c9c0f
DTITLE=Emmylou Harris and the Hot Band - Emmylou Harris and the Hot Ba
DTITLE=nd - Live on the Radio 1975 and 1978
DYEAR=2014
DGENRE=Country
TTITLE0=Two More Bottles of Wine
TTITLE1=Easy From Now On
TTITLE2=To Daddy
TTITLE3=Luxury Liner
TTITLE4=Even Cowgirls Get the Blues
TTITLE5=My Songbird
TTITLE6=I Ain't Living Long Like This
TTITLE7=The Angels Rejoiced Last Night
TTITLE8=Leavin' Louisiana In Broad Daylight
TTITLE9=The Green Rolling Hills
TTITLE10=I Believe Jesus Loves Me
TTITLE11=If I Needed You
TTITLE12=Satan's Jewel Crown
TTITLE13=Keep On The Sunny Side
TTITLE14=Under The Weepin' Willow
EXTD=
EXTT0=
EXTT1=
EXTT2=
EXTT3=
EXTT4=
EXTT5=
EXTT6=
EXTT7=
EXTT8=
EXTT9=
EXTT10=
EXTT11=
EXTT12=
EXTT13=
EXTT14=
PLAYORDER=
